<?xml version="1.0" encoding="UTF-8"?>
<svg id="Capa_1" data-name="Capa 1" xmlns="http://www.w3.org/2000/svg" viewBox="0 0 654.05 654.05">
  <defs>
    <style>
      .cls-1 {
        fill: #e9521f;
        fill-rule: evenodd;
        stroke-width: 0px;
      }
    </style>
  </defs>
  <g id="Icon">
    <path class="cls-1" d="M304.21,159.71c0-12.59,10.22-22.82,22.82-22.82s22.82,10.22,22.82,22.82v334.63c0,12.59-10.22,22.82-22.82,22.82s-22.82-10.22-22.82-22.82V159.71Z"/>
    <path class="cls-1" d="M159.71,349.84c-12.59,0-22.82-10.22-22.82-22.82s10.22-22.82,22.82-22.82h334.63c12.59,0,22.82,10.22,22.82,22.82s-10.22,22.82-22.82,22.82H159.71Z"/>
    <path class="cls-1" d="M654.05,144.5v365.05c0,38.33-15.21,75.08-42.32,102.18-27.1,27.1-63.85,42.32-102.18,42.32H144.5c-38.33,0-75.08-15.21-102.18-42.32C15.21,584.63,0,547.88,0,509.55V144.5c0-38.33,15.21-75.08,42.32-102.18C69.42,15.21,106.17,0,144.5,0h365.05c38.33,0,75.08,15.21,102.18,42.32,27.1,27.1,42.32,63.85,42.32,102.18ZM608.42,144.5c0-26.22-10.4-51.38-28.96-69.91-18.53-18.56-43.68-28.96-69.91-28.96H144.5c-26.22,0-51.38,10.4-69.91,28.96-18.56,18.53-28.96,43.68-28.96,69.91v365.05c0,26.22,10.4,51.38,28.96,69.91,18.53,18.56,43.68,28.96,69.91,28.96h365.05c26.22,0,51.38-10.4,69.91-28.96,18.56-18.53,28.96-43.68,28.96-69.91V144.5Z"/>
  </g>
</svg>