<?xml version="1.0" encoding="UTF-8"?>
<svg id="Capa_1" data-name="Capa 1" xmlns="http://www.w3.org/2000/svg" viewBox="0 0 369.94 521.77">
  <defs>
    <style>
      .cls-1 {
        fill: #e9521f;
        stroke-width: 0px;
      }
    </style>
  </defs>
  <path class="cls-1" d="M201.75,0h-33.57c-20.44,0-37.13,16.7-37.13,37.13v4.61h-61.92c-24.87,0-45.13,20.26-45.13,45.22v8.96h-2.09c-12.09,0-21.91,9.83-21.91,21.83v20.26c0,12,9.83,21.83,21.91,21.83h1.74l17.04,353.67c.17,4.61,4.09,8.26,8.7,8.26h271.15c4.61,0,8.52-3.65,8.7-8.26l17.04-353.67h1.74c12.09,0,21.91-9.83,21.91-21.83v-20.26c0-12-9.83-21.83-21.91-21.83h-2.09v-8.96c0-24.96-20.26-45.22-45.13-45.22h-61.92v-4.61C238.88,16.7,222.19,0,201.75,0ZM148.44,37.13c0-10.87,8.87-19.74,19.74-19.74h33.57c10.87,0,19.74,8.87,19.74,19.74v4.61h-73.05v-4.61ZM312.28,504.38H57.66l-16.61-344.54h287.84l-16.61,344.54ZM328.54,86.96v8.96H41.39v-8.96c0-15.31,12.44-27.83,27.74-27.83h231.67c15.31,0,27.74,12.52,27.74,27.83Z"/>
  <path class="cls-1" d="M109.48,448.03c12.44,0,22.52-9.65,22.52-21.57v-205.4c0-11.91-10.09-21.57-22.52-21.57s-22.52,9.65-22.52,21.57v205.4c0,11.91,10.09,21.57,22.52,21.57Z"/>
  <path class="cls-1" d="M184.97,448.03c12.44,0,22.52-9.65,22.52-21.57v-205.4c0-11.91-10.09-21.57-22.52-21.57s-22.52,9.65-22.52,21.57v205.4c0,11.91,10.09,21.57,22.52,21.57Z"/>
  <path class="cls-1" d="M260.45,448.03c12.44,0,22.52-9.65,22.52-21.57v-205.4c0-11.91-10.09-21.57-22.52-21.57s-22.52,9.65-22.52,21.57v205.4c0,11.91,10.09,21.57,22.52,21.57Z"/>
</svg>