<?xml version="1.0" encoding="UTF-8"?>
<svg id="Capa_1" data-name="Capa 1" xmlns="http://www.w3.org/2000/svg" viewBox="0 0 397.32 629.77">
  <defs>
    <style>
      .cls-1 {
        fill: #e9521f;
        stroke-width: 0px;
      }
    </style>
  </defs>
  <g id="Layer_35" data-name="Layer 35">
    <path class="cls-1" d="M7.34,619.04c.55,3.77,2.81,7.61,6.17,9.43,3.35,1.82,7.8,1.63,11.27.04l85.23-46.61c17.4-9.65,24.45-16.24,34.29-34.34L393.41,88.94c8.38-15.42,2.86-34.05-12.56-42.42L302.41,3.91c-15.42-8.38-34.05-2.86-42.42,12.56L10.87,475.08c-10.2,18.77-12.19,27.24-10.15,47.46l6.62,96.51ZM293.81,136.43l36.21,19.67-196.67,362.06c-4.27-4.93-10.25-9.91-16.28-13.19-6.03-3.28-13.47-5.58-19.92-6.48l196.67-362.06ZM71.78,521.19c2.68,1.46,6.09,1.57,8.83,1.32,8.28-2.45,18.14-1.43,25.52,2.57,6.7,3.64,11.65,8.93,14.83,15.87-6.19,11.4-10.39,14.33-22.56,20.74l-69.23,37.94-5.86-78.73c-1.24-13.7-.03-19.12,5.12-30.21,7.55-1.11,14.68.16,21.38,3.8,8.05,4.37,13.6,11.73,16.05,20.01,1.28,2.43,3.24,5.23,5.92,6.69ZM237.49,105.84l36.21,19.67L77.02,487.57c-4.94-5.29-10.25-9.91-16.28-13.19-6.03-3.28-13.47-5.58-19.92-6.48L237.49,105.84Z"/>
  </g>
</svg>