<?xml version="1.0" encoding="UTF-8"?>
<svg id="Capa_1" data-name="Capa 1" xmlns="http://www.w3.org/2000/svg" viewBox="0 0 1080 1080">
  <defs>
    <style>
      .cls-1 {
        fill: none;
        stroke: #e9521f;
        stroke-miterlimit: 10;
        stroke-width: 20.96px;
      }
    </style>
  </defs>
  <path class="cls-1" d="M954.87,472.61l-377.97-313.04c-9.32-7.73-22.82-7.73-32.15,0L166.78,472.61c-10.72,8.87-12.21,24.76-3.33,35.48,8.87,10.71,24.76,12.22,35.48,3.33l69.6-57.64v390.43c0,13.91,11.28,25.2,25.2,25.2h534.2c13.92,0,25.2-11.28,25.2-25.2v-390.43l69.6,57.64c4.71,3.9,10.4,5.79,16.06,5.79,7.25,0,14.44-3.11,19.42-9.13,8.88-10.72,7.39-26.6-3.33-35.48h-.02Z"/>
</svg>