<?xml version="1.0" encoding="UTF-8"?>
<svg id="Capa_1" data-name="Capa 1" xmlns="http://www.w3.org/2000/svg" viewBox="0 0 605.72 605.72">
  <defs>
    <style>
      .cls-1 {
        fill: #e9521f;
        stroke-width: 0px;
      }
    </style>
  </defs>
  <path class="cls-1" d="M8.87,299.91c4.9,0,8.87-3.97,8.87-8.87v-68.22c0-8.15,6.63-14.79,14.79-14.79h72.38c4.9,0,8.87-3.97,8.87-8.87s-3.97-8.87-8.87-8.87H32.53C14.59,190.29,0,204.88,0,222.82v68.22c0,4.9,3.97,8.87,8.87,8.87Z"/>
  <path class="cls-1" d="M430.3,378.18c-4.9,0-8.87,3.97-8.87,8.87v186.14c0,8.15-6.63,14.79-14.79,14.79H32.53c-8.15,0-14.79-6.63-14.79-14.79v-240.16c0-4.9-3.97-8.87-8.87-8.87s-8.87,3.97-8.87,8.87v240.16c0,17.94,14.59,32.53,32.53,32.53h374.1c17.94,0,32.53-14.6,32.53-32.53v-186.14c0-4.9-3.97-8.87-8.87-8.87Z"/>
  <path class="cls-1" d="M596.84,214.97c4.9,0,8.87-3.97,8.87-8.87v-48.25c0-11.42-9.29-20.7-20.7-20.7h-70.04c-11.42,0-20.7,9.29-20.7,20.7v15.19h-28.13c-8.73,0-17.25-2.44-24.65-7.07l-58.67-36.67,30.43-45.12h0s0,0,0,0l18.86-27.97c3.09-4.59,4.21-10.1,3.16-15.53-1.06-5.43-4.16-10.12-8.75-13.21l-35.47-23.92c-4.59-3.09-10.1-4.22-15.53-3.16-5.43,1.06-10.12,4.16-13.21,8.75l-76.6,113.59h-55.03c-25.38,0-48.9,13.72-61.4,35.8l-45.51,80.4c-6,10.6-5.92,23.21.22,33.73,6.14,10.52,17.07,16.8,29.25,16.8h8.33c.08,4.73,1.02,9.24,2.66,13.41l-35.2,52.2c-2.6,3.86-4.38,8.33-5.13,12.92l-7.88,48.01c-1.33,8.08,2.07,15.94,8.86,20.52,3.53,2.38,7.54,3.58,11.56,3.58,3.71,0,7.42-1.02,10.78-3.06l41.56-25.3c4.03-2.46,7.42-5.69,10.05-9.6l33.49-49.66v3.55c0,16.99,13.82,30.81,30.81,30.81h9.8c8.58,0,16.34-3.53,21.93-9.2,5.59,5.68,13.36,9.2,21.93,9.2h9.8c16.99,0,30.81-13.82,30.81-30.81v-4.45c8.53,2.51,17.35,3.81,26.35,3.81h73.1c9.11,0,18.15-1.32,26.88-3.94l10.55-3.16v24.57c0,11.42,9.29,20.7,20.7,20.7h70.04c11.42,0,20.7-9.29,20.7-20.7v-120.02c0-4.9-3.97-8.87-8.87-8.87s-8.87,3.97-8.87,8.87v120.01c0,1.63-1.33,2.96-2.96,2.96h-70.04c-1.63,0-2.96-1.33-2.96-2.96v-215.02c0-1.63,1.33-2.96,2.96-2.96h70.04c1.63,0,2.96,1.33,2.96,2.96v48.25c0,4.9,3.97,8.87,8.87,8.87h0ZM225.03,244.46L353.2,54.39l40.37,27.22-109.81,162.85h-58.73ZM377.03,19.06c.6-.88,1.44-1.16,1.89-1.25.45-.09,1.33-.15,2.22.45l35.47,23.92c.88.6,1.16,1.44,1.25,1.89.09.45.15,1.33-.45,2.22l-13.9,20.62-40.37-27.22,13.9-20.62ZM139.33,263.73c-2.92-5.01-2.96-11.01-.1-16.05l45.51-80.4c9.35-16.53,26.96-26.8,45.96-26.8h43.06l-70.12,103.99h-7.34c-16.58,0-30.48,11.69-33.9,27.26h-9.14c-5.8,0-11-2.99-13.92-8h0ZM203.84,362.98l-40.37-27.22,11.82-17.53c6.69,5.64,15.32,9.05,24.73,9.05h27.9l-24.08,35.71ZM184.12,392.23c-1.2,1.78-2.74,3.25-4.57,4.36l-41.56,25.3c-1.41.86-2.61.32-3.19-.07-.59-.4-1.53-1.3-1.26-2.93l7.88-48.01c.34-2.09,1.15-4.12,2.33-5.87l9.8-14.53,40.37,27.22-9.8,14.53ZM272.93,369.09h-9.8c-7.2,0-13.06-5.86-13.06-13.06v-28.75h35.92v28.75c0,7.2-5.86,13.06-13.06,13.06h0ZM326.59,369.09h-9.8c-7.2,0-13.06-5.86-13.06-13.06v-27.19l35.92,15.81v11.38c0,7.2-5.86,13.06-13.06,13.06h0ZM478.63,334.45c-7.07,2.12-14.4,3.19-21.79,3.19h-73.1c-10.6,0-20.89-2.16-30.59-6.43l-42.51-18.71c-4.47-1.97-9.2-2.96-14.08-2.96h-96.54c-11.42,0-20.7-9.29-20.7-20.7v-9.65c0-9.35,7.61-16.96,16.96-16.96h129.58c8.69,0,17.01-3.21,23.45-9.05l23.08-20.94c3.63-3.29,3.9-8.9.61-12.53-3.29-3.63-8.9-3.9-12.53-.61l-23.08,20.94c-3.16,2.87-7.26,4.45-11.53,4.45h-20.7l67.73-100.44,59.19,36.99c10.23,6.39,22,9.77,34.06,9.77h28.13v138.98l-15.64,4.68Z"/>
  <path class="cls-1" d="M58.06,440.1h22.57c4.9,0,8.87-3.97,8.87-8.87s-3.97-8.87-8.87-8.87h-22.57c-4.9,0-8.87,3.97-8.87,8.87s3.97,8.87,8.87,8.87Z"/>
  <path class="cls-1" d="M378.35,469.6H58.06c-4.9,0-8.87,3.97-8.87,8.87s3.97,8.87,8.87,8.87h320.29c4.9,0,8.87-3.97,8.87-8.87s-3.97-8.87-8.87-8.87Z"/>
  <path class="cls-1" d="M378.35,516.85H58.06c-4.9,0-8.87,3.97-8.87,8.87s3.97,8.87,8.87,8.87h320.29c4.9,0,8.87-3.97,8.87-8.87s-3.97-8.87-8.87-8.87Z"/>
</svg>