<?xml version="1.0" encoding="UTF-8"?>
<svg id="Capa_1" data-name="Capa 1" xmlns="http://www.w3.org/2000/svg" viewBox="0 0 710.19 640.58">
  <defs>
    <style>
      .cls-1 {
        fill: #e9521f;
        stroke-width: 0px;
      }
    </style>
  </defs>
  <path class="cls-1" d="M22.11,127.28c5.33,0,10.65-2.03,14.71-6.09,34.82-34.82,75.11-62.16,119.74-81.24,10.57-4.52,15.47-16.75,10.95-27.31-4.52-10.57-16.75-15.47-27.31-10.95C90.67,22.86,45.99,53.16,7.4,91.76c-8.13,8.13-8.13,21.3,0,29.42,4.06,4.06,9.39,6.09,14.71,6.09Z"/>
  <path class="cls-1" d="M553.76,40c44.58,19.08,84.83,46.39,119.62,81.18,4.06,4.06,9.39,6.09,14.71,6.09s10.65-2.03,14.71-6.09c8.13-8.13,8.13-21.3,0-29.42-38.56-38.55-83.19-68.84-132.67-90.02-10.57-4.52-22.8.38-27.31,10.94-4.52,10.56.38,22.79,10.94,27.31Z"/>
  <path class="cls-1" d="M151.32,88.41c-24.51,12.61-47.53,28.29-68.43,46.61-8.64,7.57-9.51,20.72-1.94,29.36,4.11,4.69,9.87,7.09,15.66,7.09,4.87,0,9.76-1.7,13.71-5.16,18.35-16.08,38.55-29.84,60.04-40.9,10.22-5.26,14.24-17.8,8.98-28.02-5.26-10.22-17.8-14.24-28.02-8.99h0Z"/>
  <path class="cls-1" d="M539.83,125.42c21.49,11.06,41.69,24.82,60.04,40.9,3.95,3.46,8.84,5.16,13.71,5.16,5.79,0,11.54-2.4,15.65-7.09,7.57-8.64,6.71-21.79-1.93-29.36-20.9-18.32-43.93-34-68.43-46.61-10.22-5.26-22.76-1.23-28.02,8.98-5.26,10.22-1.24,22.76,8.98,28.02h0Z"/>
  <path class="cls-1" d="M689.39,515.74h-15.26c-26.77,0-48.55-21.78-48.55-48.55v-8.32h34.68c11.49,0,20.81-9.32,20.81-20.81s-9.32-20.81-20.81-20.81v-26.35c0-141.5-115.12-256.61-256.61-256.61h-27.75v-41.61h55.49c11.49,0,20.81-9.32,20.81-20.81s-9.32-20.81-20.81-20.81h-152.58c-11.49,0-20.81,9.32-20.81,20.81s9.32,20.81,20.81,20.81h55.47v41.61h-27.73c-141.5,0-256.61,115.12-256.61,256.61v26.35c-11.49,0-20.81,9.32-20.81,20.81s9.32,20.81,20.81,20.81h34.68v8.32c0,26.77-21.78,48.55-48.55,48.55h-15.26c-11.49,0-20.81,9.32-20.81,20.81v83.23c0,11.49,9.32,20.81,20.81,20.81h668.58c11.49,0,20.81-9.32,20.81-20.81v-83.23c0-11.49-9.32-20.81-20.81-20.81ZM91.55,390.91c0-118.55,96.45-215,215-215h97.1c118.55,0,215,96.45,215,215v26.35H91.55v-26.35ZM41.61,598.97v-41.61h384.23c11.49,0,20.81-9.32,20.81-20.81s-9.32-20.81-20.81-20.81H112c9-14.02,14.22-30.69,14.22-48.55v-8.32h457.74v8.32c0,17.86,5.23,34.52,14.22,48.55h-82.19c-11.49,0-20.81,9.32-20.81,20.81s9.32,20.81,20.81,20.81h152.58v41.61H41.61Z"/>
</svg>