<?xml version="1.0" encoding="UTF-8"?>
<svg id="Capa_1" data-name="Capa 1" xmlns="http://www.w3.org/2000/svg" viewBox="0 0 589.51 589.72">
  <defs>
    <style>
      .cls-1 {
        fill: #e9521f;
        stroke-width: 0px;
      }
    </style>
  </defs>
  <path class="cls-1" d="M318.31,107.66c19.39-8.95,32.9-28.51,32.9-51.22,0-31.12-25.33-56.44-56.45-56.44s-56.46,25.32-56.46,56.44c0,22.64,13.44,42.16,32.74,51.14-68.8,5.41-132.74,34.42-182.63,83.32C31.4,246.78,0,321.51,0,401.31v41.17c0,4.07,3.3,7.37,7.37,7.37h214.76v46.45H36.86c-3.07,0-5.82,1.91-6.9,4.78L.47,579.76c-.85,2.26-.53,4.8.85,6.79,1.37,1.99,3.64,3.17,6.06,3.17h574.77c2.42,0,4.68-1.18,6.06-3.17,1.38-1.99,1.69-4.52.85-6.79l-29.49-78.67c-1.08-2.88-3.83-4.78-6.9-4.78h-186.39v-46.45h215.87c4.07,0,7.37-3.3,7.37-7.37v-35.4c0-156.43-120.14-287.13-271.21-299.43ZM253.04,56.44c0-22.99,18.71-41.7,41.71-41.7s41.71,18.71,41.71,41.7-18.71,41.69-41.71,41.69-41.71-18.7-41.71-41.69ZM571.51,574.98H18.01l23.96-63.93h505.58l23.96,63.93ZM351.53,496.31h-114.65v-46.45h114.65v46.45ZM574.77,435.11H14.74v-33.8c0-75.81,29.83-146.79,83.98-199.88,54.17-53.1,125.91-81.53,201.78-79.97,151.23,3.03,274.27,131.16,274.27,285.62v28.03Z"/>
  <path class="cls-1" d="M268.05,245.14c-3.01-2.74-7.68-2.51-10.41.5-2.74,3.01-2.51,7.68.5,10.41,31.97,29.03,53.08,65.75,61.05,106.19.69,3.51,3.77,5.95,7.22,5.95.47,0,.95-.04,1.43-.14,4-.79,6.59-4.66,5.81-8.66-8.59-43.56-31.27-83.07-65.6-114.25Z"/>
  <path class="cls-1" d="M270,183.71c-3.8-1.41-8.06.54-9.47,4.36-1.41,3.82.54,8.06,4.36,9.47,18.95,6.99,36.73,16.44,52.85,28.08,1.31.94,2.81,1.4,4.31,1.4,2.29,0,4.54-1.06,5.98-3.06,2.39-3.3,1.64-7.91-1.66-10.29-17.21-12.43-36.17-22.5-56.38-29.96Z"/>
</svg>