<?xml version="1.0" encoding="UTF-8"?>
<svg id="Capa_1" data-name="Capa 1" xmlns="http://www.w3.org/2000/svg" viewBox="0 0 626.27 626.27">
  <defs>
    <style>
      .cls-1 {
        stroke: #e9521f;
        stroke-miterlimit: 10;
        stroke-width: 7.7px;
      }

      .cls-1, .cls-2 {
        fill: #e9521f;
      }

      .cls-2 {
        stroke-width: 0px;
      }
    </style>
  </defs>
  <g id="line">
    <g>
      <path class="cls-2" d="M607.59,246.82l-46.75-5.82c-5.26-18.12-12.53-35.56-21.58-52l28.85-37.13c6.71-8.61,5.14-21.58-3.58-29.97l-60.05-60.05c-8.61-8.83-21.58-10.4-30.08-3.69l-37.13,28.85c-16.44-9.06-33.89-16.33-52-21.58l-5.82-46.75c-1.34-10.62-11.52-18.68-23.71-18.68h-85.11c-12.19,0-22.48,8.05-23.82,18.68l-5.82,46.75c-18.12,5.26-35.56,12.53-52,21.58l-37.13-28.85c-8.61-6.71-21.58-5.14-30.08,3.58l-60.05,60.05c-8.83,8.61-10.4,21.47-3.69,30.08l28.96,37.13c-9.06,16.44-16.33,33.89-21.58,52l-46.75,5.82c-10.62,1.34-18.68,11.52-18.68,23.71v85.11c0,12.19,8.05,22.48,18.68,23.82l46.75,5.82c5.26,18.12,12.53,35.56,21.58,52l-28.85,37.13c-6.71,8.61-5.14,21.58,3.58,29.97l60.05,60.05c8.61,8.83,21.47,10.4,30.08,3.69l37.13-28.85c16.44,9.06,33.89,16.33,52,21.58l5.82,46.75c1.34,10.62,11.52,18.68,23.71,18.68h85.11c12.19,0,22.48-8.05,23.82-18.68l5.82-46.75c18.12-5.26,35.56-12.53,52-21.58l37.13,28.85c8.61,6.71,21.47,5.14,30.08-3.58l60.05-60.05c8.83-8.61,10.4-21.47,3.69-30.08l-28.96-37.13c9.06-16.44,16.33-33.89,21.58-52l46.75-5.82c10.62-1.34,18.68-11.52,18.68-23.71v-85.11c0-12.3-8.05-22.48-18.68-23.82ZM606.03,355.74c0,2.35-1.01,3.69-.89,3.8l-53.46,6.6c-4.14.56-7.49,3.47-8.5,7.49-5.48,20.91-13.76,40.93-24.72,59.61-2.12,3.58-1.79,8.05.78,11.3l32.88,42.16c.11.34-.11,2.01-1.79,3.58l-60.28,60.28c-1.45,1.57-3.13,1.79-3.24,1.79l-42.38-33.1c-3.24-2.57-7.72-2.91-11.3-.78-18.56,10.85-38.69,19.24-59.61,24.72-4.03,1.01-6.93,4.47-7.49,8.5l-6.49,53.01c-.22.34-1.57,1.34-3.91,1.34h-85.11c-2.24,0-3.58-.89-3.69-.89l-6.6-53.46c-.56-4.14-3.47-7.49-7.49-8.5-20.91-5.48-40.93-13.76-59.61-24.72-3.58-2.12-8.05-1.79-11.3.78l-42.16,32.88c-.34.11-2.01-.11-3.58-1.79l-60.28-60.28c-1.57-1.57-1.79-3.13-1.79-3.24l33.1-42.38c2.57-3.24,2.8-7.72.78-11.3-10.85-18.68-19.24-38.69-24.72-59.61-1.01-4.03-4.47-6.93-8.5-7.49l-53.01-6.49c-.34-.22-1.34-1.57-1.34-3.91v-85.11c0-2.35,1.01-3.69.89-3.8l53.46-6.6c4.14-.56,7.49-3.47,8.5-7.49,5.48-20.91,13.76-40.93,24.72-59.61,2.12-3.58,1.79-8.05-.78-11.3l-32.88-42.16c-.11-.34.11-2.01,1.79-3.58l60.28-60.28c1.45-1.57,3.13-1.79,3.24-1.79l42.38,33.1c3.24,2.57,7.72,2.8,11.3.78,18.56-10.85,38.69-19.24,59.61-24.72,4.03-1.01,6.93-4.47,7.49-8.5l6.49-53.01c.22-.34,1.57-1.34,3.91-1.34h85.11c2.35,0,3.8,1.01,3.8.89l6.6,53.46c.56,4.14,3.47,7.49,7.49,8.5,20.91,5.48,40.93,13.76,59.61,24.72,3.58,2.12,8.05,1.79,11.3-.78l42.16-32.88c.34-.11,2.01.11,3.58,1.79l60.28,60.28c1.57,1.57,1.79,3.13,1.79,3.24l-33.1,42.38c-2.57,3.24-2.8,7.72-.78,11.3,10.85,18.68,19.24,38.69,24.72,59.61,1.01,4.03,4.47,6.93,8.5,7.49l53.01,6.49c.34.22,1.34,1.57,1.34,3.91v85.11h-.11Z"/>
      <path class="cls-1" d="M313.13,199.22c-62.84,0-113.92,51.15-113.92,113.92s51.07,113.92,113.92,113.92,113.92-51.07,113.92-113.92-51.07-113.92-113.92-113.92ZM313.13,413.97c-55.58,0-100.84-45.26-100.84-100.84s45.26-100.84,100.84-100.84,100.84,45.26,100.84,100.84-45.26,100.84-100.84,100.84Z"/>
    </g>
  </g>
</svg>