<?xml version="1.0" encoding="UTF-8"?>
<svg id="Capa_1" data-name="Capa 1" xmlns="http://www.w3.org/2000/svg" viewBox="0 0 648.33 770.32">
  <defs>
    <style>
      .cls-1 {
        fill: #e9521f;
        stroke-width: 0px;
      }
    </style>
  </defs>
  <path class="cls-1" d="M421.29,220.28c8.48,0,15.37-6.87,15.37-15.37s-6.89-15.37-15.37-15.37h-211.01c-8.48,0-15.37,6.87-15.37,15.37s6.89,15.37,15.37,15.37h211.01Z"/>
  <path class="cls-1" d="M632.96,189.54h-104.68c-8.48,0-15.37,6.87-15.37,15.37s6.89,15.37,15.37,15.37h89.32v519.3H30.73V220.28h84.2c8.48,0,15.37-6.87,15.37-15.37s-6.89-15.37-15.37-15.37H15.37c-8.48,0-15.37,6.87-15.37,15.37v550.04c0,8.5,6.89,15.37,15.37,15.37h617.59c8.48,0,15.37-6.87,15.37-15.37V204.91c0-8.5-6.87-15.37-15.37-15.37Z"/>
  <path class="cls-1" d="M473.26,254.84c8.48,0,15.37-6.87,15.37-15.37v-112.06c0-70.25-75.84-127.41-169.43-127.41s-169.04,57.17-169.04,127.41v112.06c0,8.5,6.89,15.37,15.37,15.37s15.37-6.87,15.37-15.37v-112.06c0-53.31,62.05-96.68,138.69-96.68s138.31,43.37,138.31,96.68v112.06c0,8.5,6.87,15.37,15.37,15.37Z"/>
  <path class="cls-1" d="M125.97,278.98c0,21.79,17.75,39.53,39.56,39.53s39.56-17.73,39.56-39.53c0-8.5-6.89-15.37-15.37-15.37s-15.37,6.87-15.37,15.37c0,4.84-3.95,8.79-8.82,8.79s-8.82-3.95-8.82-8.79c0-8.5-6.89-15.37-15.37-15.37s-15.36,6.87-15.36,15.37Z"/>
  <path class="cls-1" d="M473.26,318.51c21.81,0,39.56-17.73,39.56-39.53,0-8.5-6.89-15.37-15.37-15.37s-15.37,6.87-15.37,15.37c0,4.84-3.95,8.79-8.82,8.79s-8.82-3.95-8.82-8.79c0-8.5-6.89-15.37-15.37-15.37s-15.37,6.87-15.37,15.37c0,21.79,17.75,39.53,39.56,39.53Z"/>
</svg>