<?xml version="1.0" encoding="UTF-8"?>
<svg id="Capa_1" data-name="Capa 1" xmlns="http://www.w3.org/2000/svg" viewBox="0 0 879.08 876.19">
  <defs>
    <style>
      .cls-1 {
        fill: #e9521f;
        stroke-width: 0px;
      }
    </style>
  </defs>
  <g id="_06_Dinning_Room" data-name="06 Dinning Room">
    <g>
      <path class="cls-1" d="M674.1,451.72H204.97c-18.95,0-33.83,15.52-33.83,33.74s15.16,33.83,33.83,33.83h74.25v347.88c0,5.05,3.97,9.02,9.02,9.02h32.75c4.78,0,8.75-3.7,9.02-8.57l11.82-239.35h195.41l11.91,239.35c.18,4.87,4.15,8.57,9.02,8.57h32.75c4.96,0,9.02-3.97,9.02-9.02v-347.88h74.16c18.68,0,33.83-15.16,33.83-33.83s-15.16-33.74-33.83-33.74h0ZM534.27,567.83h-189.37l2.35-48.54h184.58l2.44,48.54ZM342.82,610.23l1.17-24.36h191.17l1.17,24.36h-193.51Z"/>
      <path class="cls-1" d="M248.91,672.21v-17.32c0-20.93-17.05-37.98-37.98-37.98H37.89c-7.31,0-14.07,2.26-19.85,5.77v-18.5h15.43c20.93,0,37.98-16.96,37.98-37.89v-206.69c0-20.93-17.05-37.89-37.98-37.89h-15.43v-14.07c0-4.96-4.06-9.02-9.02-9.02s-9.02,4.06-9.02,9.02v559.53c0,5.05,4.06,9.02,9.02,9.02s9.02-3.97,9.02-9.02v-178.81h222.66c.63,0,1.17.54,1.17,1.17v177.64c0,5.05,3.97,9.02,9.02,9.02s9.02-3.97,9.02-9.02v-177.64c0-7.67-4.51-14.25-11.01-17.32h0ZM230.87,670.31H18.04v-15.61c.09-10.92,8.93-19.76,19.85-19.76h173.04c11.01,0,19.94,8.93,19.94,19.94v15.43h0Z"/>
      <path class="cls-1" d="M870.05,298.62c-4.96,0-9.02,4.06-9.02,9.02v14.07h-15.43c-20.93,0-37.89,16.96-37.89,37.89v206.69c0,20.93,16.96,37.89,37.89,37.89h15.43v18.5c-5.77-3.52-12.54-5.77-19.85-5.77h-173.04c-20.93,0-37.89,17.05-37.89,37.98v17.32c-6.5,3.07-11.01,9.65-11.01,17.32v177.64c0,5.05,4.06,9.02,9.02,9.02s9.02-3.97,9.02-9.02v-177.64c0-.63.45-1.17,1.08-1.17h222.66v178.81c0,5.05,4.06,9.02,9.02,9.02s9.02-3.97,9.02-9.02V307.64c0-4.96-3.97-9.02-9.02-9.02h0ZM861.03,670.31h-212.73v-15.43c0-11.01,8.93-19.94,19.85-19.94h173.04c10.92,0,19.76,8.84,19.85,19.76v15.61h0Z"/>
      <path class="cls-1" d="M303.76,152.29V9.02c0-4.96-3.97-9.02-9.02-9.02s-9.02,4.06-9.02,9.02v143.27c-36.18,3.88-67.03,30.67-75.15,66.67-3.16,14.35,7.76,28.06,22.46,28.06h17.59c4.15,20.57,22.37,36.09,44.12,36.09s40.06-15.52,44.21-36.09h17.59c14.71,0,25.62-13.71,22.37-28.06-8.03-36-38.88-62.79-75.15-66.67h0ZM294.74,265.06c-11.73,0-21.74-7.58-25.44-18.04h50.97c-3.7,10.46-13.71,18.04-25.53,18.04Z"/>
      <path class="cls-1" d="M668.51,218.96c-8.12-36-38.97-62.79-75.15-66.67V9.02C593.36,4.06,589.3,0,584.34,0s-9.02,4.06-9.02,9.02v143.27c-36.18,3.88-67.03,30.67-75.15,66.67-3.25,14.35,7.76,28.06,22.46,28.06h17.5c4.24,20.57,22.46,36.09,44.21,36.09s39.97-15.52,44.21-36.09h17.5c14.7,0,25.71-13.71,22.46-28.06h0ZM584.34,265.06c-11.73,0-21.74-7.58-25.44-18.04h50.97c-3.79,10.46-13.8,18.04-25.53,18.04Z"/>
    </g>
  </g>
</svg>