<?xml version="1.0" encoding="UTF-8"?>
<svg id="Capa_1" data-name="Capa 1" xmlns="http://www.w3.org/2000/svg" viewBox="0 0 300.65 348.75">
  <defs>
    <style>
      .cls-1 {
        fill: #fcefd9;
      }

      .cls-1, .cls-2 {
        stroke-width: 0px;
      }

      .cls-2 {
        fill: #e9521f;
      }
    </style>
  </defs>
  <rect class="cls-1" width="300.65" height="348.75" rx="22.23" ry="22.23"/>
  <path class="cls-2" d="M177.52,232.66c-.84,0-1.7-.1-2.54-.33l-77.13-20.66c-5.29-1.46-8.44-6.93-7.05-12.22l9.73-36.27c.36-1.33,1.73-2.1,3.05-1.77,1.33.35,2.12,1.73,1.77,3.05l-9.73,36.26c-.69,2.64.89,5.4,3.54,6.13l77.1,20.65c2.65.7,5.38-.88,6.07-3.51l3.9-14.44c.36-1.33,1.73-2.12,3.06-1.76,1.33.36,2.11,1.73,1.76,3.06l-3.89,14.42c-1.17,4.44-5.21,7.39-9.63,7.39h0Z"/>
  <path class="cls-2" d="M200.2,202.73h-79.81c-5.5,0-9.98-4.47-9.98-9.98v-59.86c0-5.5,4.47-9.98,9.98-9.98h79.81c5.5,0,9.98,4.47,9.98,9.98v59.86c0,5.5-4.47,9.98-9.98,9.98ZM120.4,127.91c-2.75,0-4.99,2.24-4.99,4.99v59.86c0,2.75,2.24,4.99,4.99,4.99h79.81c2.75,0,4.99-2.24,4.99-4.99v-59.86c0-2.75-2.24-4.99-4.99-4.99h-79.81Z"/>
  <path class="cls-2" d="M135.36,157.84c-5.5,0-9.98-4.47-9.98-9.98s4.47-9.98,9.98-9.98,9.98,4.47,9.98,9.98-4.47,9.98-9.98,9.98ZM135.36,142.88c-2.75,0-4.99,2.24-4.99,4.99s2.24,4.99,4.99,4.99,4.99-2.24,4.99-4.99-2.24-4.99-4.99-4.99Z"/>
  <path class="cls-2" d="M113.26,197.39c-.64,0-1.28-.24-1.77-.73-.97-.97-.97-2.55,0-3.53l23.56-23.56c2.82-2.82,7.76-2.82,10.58,0l7.01,7.01,19.41-23.29c1.41-1.69,3.49-2.67,5.7-2.69h.05c2.18,0,4.25.95,5.68,2.61l26.09,30.44c.9,1.04.78,2.62-.27,3.52-1.04.9-2.61.78-3.52-.27l-26.09-30.44c-.48-.56-1.15-.87-1.9-.87-.52-.04-1.43.31-1.92.9l-21.16,25.39c-.45.54-1.1.86-1.81.89-.71.05-1.38-.23-1.88-.73l-8.94-8.94c-.94-.94-2.58-.94-3.53,0l-23.56,23.56c-.48.48-1.12.73-1.76.73h0Z"/>
</svg>