<?xml version="1.0" encoding="UTF-8"?>
<svg id="Capa_1" data-name="Capa 1" xmlns="http://www.w3.org/2000/svg" viewBox="0 0 697.7 745.69">
  <defs>
    <style>
      .cls-1 {
        fill: #e9521f;
        stroke-width: 0px;
      }
    </style>
  </defs>
  <path class="cls-1" d="M351.52,157.09c-212.87,0-318.99,187.35-318.99,187.35-3.75,6.59-3.75,14.68,0,21.24,0,0,106.12,187.53,318.99,187.53s319.12-187.53,319.12-187.53c3.75-6.59,3.75-14.68,0-21.24,0,.02-106.25-187.35-319.12-187.35h0ZM351.52,245.32c60.08,0,109.13,49.52,109.13,109.79s-49.05,109.75-109.13,109.75-109-49.48-109-109.75,48.92-109.79,109-109.79ZM351.52,288.28c-36.71,0-66.08,29.57-66.08,66.84s29.37,66.84,66.08,66.84,66.17-29.57,66.17-66.84-29.46-66.84-66.17-66.84h0Z"/>
</svg>